<svg xmlns="http://www.w3.org/2000/svg"  viewBox="9 9 34 34" width="18px" height="18px"><path d="M17.122 30.357h-4.326c-.26 0-.455-.118-.564-.293-.115-.185-.121-.425 0-.659l4.597-8.061c.004-.011.004-.014 0-.025l-2.925-5.031c-.123-.238-.14-.474-.026-.659.108-.179.328-.272.588-.272h4.328c.663 0 .989.426 1.203.809 0 0 2.958 5.125 2.975 5.154-.175.308-4.67 8.206-4.67 8.206C18.082 29.923 17.769 30.357 17.122 30.357zM37.765 10.944l-9.579 16.937c-.005.012-.005.02 0 .028l6.099 11.147c.12.24.125.482.01.667C34.183 39.901 33.983 40 33.72 40h-4.321c-.661 0-.994-.439-1.208-.826 0 0-6.133-11.248-6.149-11.277.306-.542 9.626-17.072 9.626-17.072C31.9 10.409 32.183 10 32.827 10H37.2c.259 0 .465.097.574.278C37.888 10.462 37.884 10.703 37.765 10.944z"/></svg>