<?xml version="1.0" encoding="utf-8"?>
<!-- 
Dieses Werk ist unter einem Creative Commons Namensnennung-Weitergabe unter gleichen Bedingungen 3.0 Lizenzvertrag lizenziert. Um die Lizenz anzusehen, gehen Sie
bitte zu http://creativecommons.org/licenses/by-sa/3.0/ oder schicken Sie einen Brief an Creative Commons, 171 Second Street, Suite 300, San Francisco, California 94105,
USA.
1000 Dank an Marian Steinbach für die Schrift DIN Schablonierschrift (http://sendung.de/dinschablonierschrift/)
14.04.2007 - http://www.dataloo.de - Dirk Adler - trash[at]dataloo.de
30.08.2007 - Lizenzänderung von Namensnennung-NichtKommerziell-Weitergabe unter gleichen Bedingungen 2.0 zu Creative Commons Namensnennung-Weitergabe unter gleichen
Bedingungen 3.0
-->
<!DOCTYPE svg PUBLIC "-//W3C//DTD SVG 1.0//EN" "http://www.w3.org/TR/2001/REC-SVG-20010904/DTD/svg10.dtd">
<svg version="1.0" id="Ebene_1" xmlns="http://www.w3.org/2000/svg" xmlns:xlink="http://www.w3.org/1999/xlink" x="0px" y="0px"
	 width="578.001px" height="640.581px" viewBox="0 0 578.001 640.581" enable-background="new 0 0 578.001 640.581"
	 xml:space="preserve">
<g>
	<g>
		<g>
			<path d="M54.628,631.207c-5.601,5.825-11.708,8.874-18.294,8.874c-0.562,0-2.108-0.219-2.108-1.81v-13.739
				c0-0.876,0.321-2.445,1.922-2.558c2.671-0.65,4.939-2.04,6.839-4.216c2.17-2.538,3.284-5.729,3.284-9.683
				c0-6.356-4.598-10.934-15.283-13.309c-8.656-1.046-15.797-4.27-21.345-9.729c-6.006-5.812-8.991-13.216-8.991-22.109
				c0-9.812,3.404-17.844,10.24-23.963c5.399-4.79,11.079-7.288,17.011-7.288c0.694,0,2.41,0.229,2.41,1.96v13.891
				c0,1.396-1.034,2.04-2.086,2.103c-1.975,0.457-3.926,1.557-5.858,3.403c-2.628,2.544-3.951,5.754-3.951,9.743
				c0,4.358,1.559,7.624,4.6,9.955c2.274,1.824,6.054,3.48,11.473,4.87c8.009,1.145,14.665,3.997,19.9,8.616
				c6.35,5.518,9.496,12.899,9.496,22.006C63.886,617.034,60.784,624.718,54.628,631.207z"/>
			<path fill="none" stroke="#000000" stroke-miterlimit="3.8637" d="M54.628,631.207c-5.601,5.825-11.708,8.874-18.294,8.874
				c-0.562,0-2.108-0.219-2.108-1.81v-13.739c0-0.876,0.321-2.445,1.922-2.558c2.671-0.65,4.939-2.04,6.839-4.216
				c2.17-2.538,3.284-5.729,3.284-9.683c0-6.356-4.598-10.934-15.283-13.309c-8.656-1.046-15.797-4.27-21.345-9.729
				c-6.006-5.812-8.991-13.216-8.991-22.109c0-9.812,3.404-17.844,10.24-23.963c5.399-4.79,11.079-7.288,17.011-7.288
				c0.694,0,2.41,0.229,2.41,1.96v13.891c0,1.396-1.034,2.04-2.086,2.103c-1.975,0.457-3.926,1.557-5.858,3.403
				c-2.628,2.544-3.951,5.754-3.951,9.743c0,4.358,1.559,7.624,4.6,9.955c2.274,1.824,6.054,3.48,11.473,4.87
				c8.009,1.145,14.665,3.997,19.9,8.616c6.35,5.518,9.496,12.899,9.496,22.006C63.886,617.034,60.784,624.718,54.628,631.207z"/>
		</g>
		<g>
			<path d="M0.939,625.321C0.585,624.898,0.5,624.4,0.5,624.027c0-0.408,0.156-1.016,0.602-1.461l10.642-8.57
				c0.636-0.424,1.757-0.614,2.568,0.197c3.385,4.353,7.769,6.953,13.099,7.724c1.499,0.057,2.148,1.275,2.288,2.398l0.01,13.957
				c0,1.343-1.194,1.807-2.309,1.807C16.098,639.245,7.202,634.317,0.939,625.321z"/>
			<path fill="none" stroke="#000000" stroke-miterlimit="3.8637" d="M0.939,625.321C0.585,624.898,0.5,624.4,0.5,624.027
				c0-0.408,0.156-1.016,0.602-1.461l10.642-8.57c0.636-0.424,1.757-0.614,2.568,0.197c3.385,4.353,7.769,6.953,13.099,7.724
				c1.499,0.057,2.148,1.275,2.288,2.398l0.01,13.957c0,1.343-1.194,1.807-2.309,1.807C16.098,639.245,7.202,634.317,0.939,625.321z
				"/>
		</g>
		<g>
			<path d="M63.128,546.112c0.737,0.823,0.666,1.965-0.131,2.766l-10.431,8.829l-0.372,0.224c-0.539,0.215-1.671,0.544-2.516-0.3
				l-0.165-0.199c-2.97-4.391-7.215-7.021-12.847-7.892c-1.494-0.061-2.141-1.277-2.281-2.397l-0.01-13.654
				c0-1.348,1.198-1.808,2.314-1.808C47.967,532.618,56.861,537.428,63.128,546.112z"/>
			<path fill="none" stroke="#000000" stroke-miterlimit="3.8637" d="M63.128,546.112c0.737,0.823,0.666,1.965-0.131,2.766
				l-10.431,8.829l-0.372,0.224c-0.539,0.215-1.671,0.544-2.516-0.3l-0.165-0.199c-2.97-4.391-7.215-7.021-12.847-7.892
				c-1.494-0.061-2.141-1.277-2.281-2.397l-0.01-13.654c0-1.348,1.198-1.808,2.314-1.808
				C47.967,532.618,56.861,537.428,63.128,546.112z"/>
		</g>
		<g>
			<path d="M100.467,640.081c-1.252,0-2.41-0.724-2.41-2.261v-88.224h-16.26c-1.262,0-2.409-0.735-2.409-2.269v-13.23
				c0-1.242,0.708-2.419,2.258-2.419h51.341c1.121,0,2.258,0.649,2.258,2.115v13.383c0,1.446-0.947,2.419-2.409,2.419h-16.41v88.074
				c0,1.45-0.956,2.412-2.41,2.412H100.467z"/>
			<path fill="none" stroke="#000000" stroke-miterlimit="3.8637" d="M100.467,640.081c-1.252,0-2.41-0.724-2.41-2.261v-88.224
				h-16.26c-1.262,0-2.409-0.735-2.409-2.269v-13.23c0-1.242,0.708-2.419,2.258-2.419h51.341c1.121,0,2.258,0.649,2.258,2.115
				v13.383c0,1.446-0.947,2.419-2.409,2.419h-16.41v88.074c0,1.45-0.956,2.412-2.41,2.412H100.467z"/>
		</g>
		<g>
			<path d="M212.657,640.081c-0.724,0-1.232-0.685-1.582-1.211l-0.173-0.377L181.237,534.59c-0.336-1.347,0.049-2.912,1.761-2.912
				h14.604c0.867,0,1.461,0.645,1.815,1.355l0.087,0.221l30.729,104.392c0.211,1.058-0.028,2.435-1.465,2.435H212.657z"/>
			<path fill="none" stroke="#000000" stroke-miterlimit="3.8637" d="M212.657,640.081c-0.724,0-1.232-0.685-1.582-1.211
				l-0.173-0.377L181.237,534.59c-0.336-1.347,0.049-2.912,1.761-2.912h14.604c0.867,0,1.461,0.645,1.815,1.355l0.087,0.221
				l30.729,104.392c0.211,1.058-0.028,2.435-1.465,2.435H212.657z"/>
		</g>
		<g>
			<path d="M153.187,640.081c-1.251,0-2.409-0.724-2.409-2.261l0.051-0.369l25.454-90.062c0.271-0.814,0.972-1.408,1.898-1.408
				s1.627,0.598,1.898,1.413l7.237,26.231c0.015,0.054,0.014,0.671-0.001,0.725l-7.047,25.23h14.023
				c0.682,0,1.583,0.626,1.763,1.312l3.917,14.913c0.3,1.201-0.425,2.294-1.765,2.294h-23.346l-5.455,20.668l-0.096,0.257
				c-0.407,0.82-1.202,1.057-1.817,1.057H153.187z"/>
			<path fill="none" stroke="#000000" stroke-miterlimit="3.8637" d="M153.187,640.081c-1.251,0-2.409-0.724-2.409-2.261
				l0.051-0.369l25.454-90.062c0.271-0.814,0.972-1.408,1.898-1.408s1.627,0.598,1.898,1.413l7.237,26.231
				c0.015,0.054,0.014,0.671-0.001,0.725l-7.047,25.23h14.023c0.682,0,1.583,0.626,1.763,1.312l3.917,14.913
				c0.3,1.201-0.425,2.294-1.765,2.294h-23.346l-5.455,20.668l-0.096,0.257c-0.407,0.82-1.202,1.057-1.817,1.057H153.187z"/>
		</g>
		<g>
			<path d="M299.905,631.207c-5.601,5.825-11.708,8.874-18.294,8.874c-0.562,0-2.109-0.219-2.109-1.81v-13.739
				c0-0.876,0.32-2.445,1.922-2.558c2.671-0.65,4.94-2.04,6.839-4.216c2.169-2.538,3.284-5.729,3.284-9.683
				c0-6.356-4.599-10.934-15.284-13.309c-8.656-1.046-15.796-4.27-21.345-9.729c-6.006-5.812-8.991-13.216-8.991-22.109
				c0-9.812,3.403-17.844,10.24-23.963c5.4-4.79,11.079-7.288,17.012-7.288c0.694,0,2.409,0.229,2.409,1.96v13.891
				c0,1.396-1.033,2.04-2.085,2.103c-1.975,0.457-3.926,1.557-5.858,3.403c-2.627,2.544-3.95,5.753-3.95,9.743
				c0,4.359,1.559,7.624,4.6,9.955c2.274,1.825,6.055,3.48,11.473,4.87c8.01,1.145,14.666,3.997,19.9,8.616
				c6.35,5.518,9.496,12.899,9.496,22.006C309.163,617.034,306.061,624.718,299.905,631.207z"/>
			<path fill="none" stroke="#000000" stroke-miterlimit="3.8637" d="M299.905,631.207c-5.601,5.825-11.708,8.874-18.294,8.874
				c-0.562,0-2.109-0.219-2.109-1.81v-13.739c0-0.876,0.32-2.445,1.922-2.558c2.671-0.65,4.94-2.04,6.839-4.216
				c2.169-2.538,3.284-5.729,3.284-9.683c0-6.356-4.599-10.934-15.284-13.309c-8.656-1.046-15.796-4.27-21.345-9.729
				c-6.006-5.812-8.991-13.216-8.991-22.109c0-9.812,3.403-17.844,10.24-23.963c5.4-4.79,11.079-7.288,17.012-7.288
				c0.694,0,2.409,0.229,2.409,1.96v13.891c0,1.396-1.033,2.04-2.085,2.103c-1.975,0.457-3.926,1.557-5.858,3.403
				c-2.627,2.544-3.95,5.753-3.95,9.743c0,4.359,1.559,7.624,4.6,9.955c2.274,1.825,6.055,3.48,11.473,4.87
				c8.01,1.145,14.666,3.997,19.9,8.616c6.35,5.518,9.496,12.899,9.496,22.006C309.163,617.034,306.061,624.718,299.905,631.207z"/>
		</g>
		<g>
			<path d="M246.216,625.321c-0.355-0.424-0.439-0.922-0.439-1.294c0-0.408,0.155-1.015,0.602-1.461l10.643-8.57
				c0.635-0.423,1.757-0.614,2.568,0.197c3.384,4.353,7.768,6.953,13.099,7.724c1.499,0.057,2.148,1.275,2.288,2.398l0.01,13.957
				c0,1.343-1.194,1.807-2.309,1.807C261.375,639.245,252.479,634.317,246.216,625.321z"/>
			<path fill="none" stroke="#000000" stroke-miterlimit="3.8637" d="M246.216,625.321c-0.355-0.424-0.439-0.922-0.439-1.294
				c0-0.408,0.155-1.015,0.602-1.461l10.643-8.57c0.635-0.423,1.757-0.614,2.568,0.197c3.384,4.353,7.768,6.953,13.099,7.724
				c1.499,0.057,2.148,1.275,2.288,2.398l0.01,13.957c0,1.343-1.194,1.807-2.309,1.807
				C261.375,639.245,252.479,634.317,246.216,625.321z"/>
		</g>
		<g>
			<path d="M308.405,546.112c0.738,0.823,0.666,1.965-0.131,2.766l-10.432,8.829l-0.372,0.224c-0.539,0.215-1.671,0.544-2.516-0.3
				l-0.164-0.199c-2.971-4.391-7.215-7.021-12.848-7.892c-1.494-0.061-2.141-1.277-2.28-2.397l-0.011-13.654
				c0-1.348,1.199-1.808,2.315-1.808C293.244,532.618,302.137,537.428,308.405,546.112z"/>
			<path fill="none" stroke="#000000" stroke-miterlimit="3.8637" d="M308.405,546.112c0.738,0.823,0.666,1.965-0.131,2.766
				l-10.432,8.829l-0.372,0.224c-0.539,0.215-1.671,0.544-2.516-0.3l-0.164-0.199c-2.971-4.391-7.215-7.021-12.848-7.892
				c-1.494-0.061-2.141-1.277-2.28-2.397l-0.011-13.654c0-1.348,1.199-1.808,2.315-1.808
				C293.244,532.618,302.137,537.428,308.405,546.112z"/>
		</g>
		<g>
			<path d="M329.333,640.081c-1.251,0-2.409-0.724-2.409-2.261V534.09c0-1.246,0.717-2.412,2.259-2.412h13.852
				c1.113,0,2.259,0.641,2.259,2.111v103.88c0,1.45-0.956,2.412-2.409,2.412H329.333z"/>
			<path fill="none" stroke="#000000" stroke-miterlimit="3.8637" d="M329.333,640.081c-1.251,0-2.409-0.724-2.409-2.261V534.09
				c0-1.246,0.717-2.412,2.259-2.412h13.852c1.113,0,2.259,0.641,2.259,2.111v103.88c0,1.45-0.956,2.412-2.409,2.412H329.333z"/>
		</g>
		<g>
			<path d="M439.824,622.598c0.469-0.469,1.063-0.585,1.523-0.585h26.046c1.231,0,2.259,0.763,2.259,2.108v13.55
				c0,1.334-0.925,2.259-2.259,2.259h-25.595c-1.464,0-2.56-0.885-2.56-2.409v-13.4
				C439.239,623.662,439.355,623.067,439.824,622.598z"/>
			<path fill="none" stroke="#000000" stroke-miterlimit="3.8637" d="M439.824,622.598c0.469-0.469,1.063-0.585,1.523-0.585h26.046
				c1.231,0,2.259,0.763,2.259,2.108v13.55c0,1.334-0.925,2.259-2.259,2.259h-25.595c-1.464,0-2.56-0.885-2.56-2.409v-13.4
				C439.239,623.662,439.355,623.067,439.824,622.598z"/>
		</g>
		<g>
			<path d="M439.708,532.263c0.47,0.47,0.585,1.063,0.585,1.523v13.249c0,1.082-0.335,2.271-1.516,2.637
				c-2.534,0.874-4.413,2.55-5.67,5.124c-0.386,0.9-1.033,1.876-2.149,1.876h-13.852c-1.345,0-2.108-1.028-2.108-2.259
				c1.467-10.989,12.141-21.615,23.048-22.728C438.645,531.678,439.24,531.794,439.708,532.263z"/>
			<path fill="none" stroke="#000000" stroke-miterlimit="3.8637" d="M439.708,532.263c0.47,0.47,0.585,1.063,0.585,1.523v13.249
				c0,1.082-0.335,2.271-1.516,2.637c-2.534,0.874-4.413,2.55-5.67,5.124c-0.386,0.9-1.033,1.876-2.149,1.876h-13.852
				c-1.345,0-2.108-1.028-2.108-2.259c1.467-10.989,12.141-21.615,23.048-22.728C438.645,531.678,439.24,531.794,439.708,532.263z"
				/>
		</g>
		<g>
			<path d="M447.8,531.707c5.921,1.067,10.995,3.991,15.189,8.71c4.632,5.263,6.965,11.405,6.965,18.363
				c0,5.53-1.256,10.403-3.815,14.563l-31.114,50.26v14.068c0,0.996-0.472,2.41-2.108,2.41h-16.109c-1.687,0-2.259-1.396-2.259-2.56
				v-13.55c0-0.813,0.425-1.615,0.778-2.32l35.523-56.602c1.25-2.612,1.79-4.579,1.79-5.969c0-9.448-7.678-8.671-7.678-11.141
				v-13.851C444.96,532.485,446.015,531.287,447.8,531.707z"/>
			<path fill="none" stroke="#000000" stroke-miterlimit="3.8637" d="M447.8,531.707c5.921,1.067,10.995,3.991,15.189,8.71
				c4.632,5.263,6.965,11.405,6.965,18.363c0,5.53-1.256,10.403-3.815,14.563l-31.114,50.26v14.068c0,0.996-0.472,2.41-2.108,2.41
				h-16.109c-1.687,0-2.259-1.396-2.259-2.56v-13.55c0-0.813,0.425-1.615,0.778-2.32l35.523-56.602
				c1.25-2.612,1.79-4.579,1.79-5.969c0-9.448-7.678-8.671-7.678-11.141v-13.851C444.96,532.485,446.015,531.287,447.8,531.707z"/>
		</g>
		<g>
			<path d="M488.8,640.081c-1.165,0-1.958-0.825-1.958-1.965v-14.141c0-1.04,0.744-1.812,1.807-1.812h14.001
				c0.778,0,1.958,0.435,1.958,1.812v14.141c0,1.14-0.793,1.965-1.958,1.965H488.8z"/>
			<path fill="none" stroke="#000000" stroke-miterlimit="3.8637" d="M488.8,640.081c-1.165,0-1.958-0.825-1.958-1.965v-14.141
				c0-1.04,0.744-1.812,1.807-1.812h14.001c0.778,0,1.958,0.435,1.958,1.812v14.141c0,1.14-0.793,1.965-1.958,1.965H488.8z"/>
		</g>
		<g>
			<path d="M546.526,531.879c0.542,0.453,0.713,1.075,0.713,1.606v14.002c0,1.036-0.461,2.033-1.549,2.347
				c-3.604,1.138-6.581,5.345-6.581,9.096v53.147c0,4.145,1.963,7.272,6.177,9.477c1.009,0.504,1.652,1.423,1.652,2.567v13.851
				c0,1.593-1.325,2.125-2.638,1.938c-6.799-1.359-12.382-4.521-16.609-9.488c-4.56-5.301-6.8-11.951-6.8-19.851v-50.136
				c0-13.421,9.976-27.696,24.025-29.055C545.495,531.38,546.069,531.499,546.526,531.879z"/>
			<path fill="none" stroke="#000000" stroke-miterlimit="3.8637" d="M546.526,531.879c0.542,0.453,0.713,1.075,0.713,1.606v14.002
				c0,1.036-0.461,2.033-1.549,2.347c-3.604,1.138-6.581,5.345-6.581,9.096v53.147c0,4.145,1.963,7.272,6.177,9.477
				c1.009,0.504,1.652,1.423,1.652,2.567v13.851c0,1.593-1.325,2.125-2.638,1.938c-6.799-1.359-12.382-4.521-16.609-9.488
				c-4.56-5.301-6.8-11.951-6.8-19.851v-50.136c0-13.421,9.976-27.696,24.025-29.055
				C545.495,531.38,546.069,531.499,546.526,531.879z"/>
		</g>
		<g>
			<path d="M552.746,531.57c0.563-0.25,1.223-0.24,1.743-0.182c13.439,1.989,23.012,14.09,23.012,27.465v51.788
				c0,14.206-9.073,26.807-23.395,29.417l-0.243,0.022c-1.124,0-2.56-0.354-2.56-1.81v-14.343c0-1.11,0.675-1.942,1.642-2.329
				c3.664-1.224,6.79-6.113,6.79-9.902v-52.542c0-4.574-2.069-7.662-6.394-9.47c-0.77-0.278-1.736-0.906-1.736-2.156v-14.192
				C551.604,532.563,552.02,531.894,552.746,531.57z"/>
			<path fill="none" stroke="#000000" stroke-miterlimit="3.8637" d="M552.746,531.57c0.563-0.25,1.223-0.24,1.743-0.182
				c13.439,1.989,23.012,14.09,23.012,27.465v51.788c0,14.206-9.073,26.807-23.395,29.417l-0.243,0.022
				c-1.124,0-2.56-0.354-2.56-1.81v-14.343c0-1.11,0.675-1.942,1.642-2.329c3.664-1.224,6.79-6.113,6.79-9.902v-52.542
				c0-4.574-2.069-7.662-6.394-9.47c-0.77-0.278-1.736-0.906-1.736-2.156v-14.192C551.604,532.563,552.02,531.894,552.746,531.57z"
				/>
		</g>
	</g>
	<g>
		<g>
			<path fill-rule="evenodd" clip-rule="evenodd" d="M271.158,1.719c-2.72,1.036-4.423-3.599-6.307,2.996
				c3.769,0,10.364,2.826,12.249,2.826c2.827,0,8.48-2.826,12.249-2.826c-2.827-1.885,0,0.942,4.711,1.884
				c9.422,1.884,18.845,7.538,26.382,11.307c0.942,0.942,4.711,0,7.538,1.885c4.711,1.884,10.365,5.653,13.191,7.538
				c0,0,0.942,0.942,0,2.827c2.826,0,5.653,0.942,8.48,1.884c0.942,0.943,1.885,4.711,4.711,5.654c0,0.942,2.826,1.885,4.711,1.885
				c0.942,0.942,0.942,2.826,0.942,4.711c0.942,0,2.827-0.942,3.769-0.942c2.827,5.653,6.596,10.365,9.423,17.902
				c0,0.942,0.942,4.711,1.884,6.596c-2.827-1.885-2.827-2.827-6.596-2.827c8.48,11.307,7.538,22.614,13.191,33.92
				c0,0.942,0,1.884-0.942,0.942c0,0-0.942,0-1.884,0l-0.942,0.942c1.885,2.827,3.769,6.596,4.711,10.365
				c-6.596-6.596-7.538-5.654-7.538-4.711c0,2.827,5.653,8.48,5.653,11.307c0,1.884-1.884,0-1.884,1.884
				c0,2.827,2.827,3.769,2.827,5.653c0,2.827-1.884,0-1.884,2.827c0,1.884,4.032,6.12,5.917,9.889c0,0,3.019-1.315,2.998-1.261
				c0-4.711,2.393-11.455,1.45-18.993c1.884,2.827,14.134,21.671,14.134,26.382c0,1.884-1.885,7.538-1.885,9.423
				c0,2.826,0,3.769,0.942,5.653h2.826v-7.538c1.885,0.942,4.711,1.885,6.597,2.827c2.826,8.48,6.595,23.556,6.595,26.383
				c0,8.48-18.844,50.881-23.556,57.477c-1.884,2.827-4.711,5.654-6.596,7.538c-1.884,1.884-4.711,1.884-6.596,2.827
				c-1.884,9.422-2.826,18.845-3.769,28.267c-0.942,6.596-3.769,18.845-3.769,20.73c0,10.364,30.151,28.267,33.92,29.209
				c52.766,16.96,111.184,33.921,164.892,49.938v19.787c-5.654,17.903-4.711,12.249-4.711,24.498c0,1.885-0.942,5.654,0,8.481
				c0,1.884,4.711,3.769,4.711,6.595v71.61c-1.884,0.942-5.654,2.827-8.48,2.827h-81.033c-4.711-1.885-11.307-3.769-14.133-3.769
				l-49.938,3.769h-72.552l12.249-63.13c-0.942-0.942-2.827,0-3.769,0v-16.96c1.885-9.423,3.769-25.44,3.769-28.267
				c0-1.885-1.884,0.942-1.884-1.885c0-1.884,1.884-4.711,1.884-6.596c-0.942-16.018,0-16.96,0-17.902
				c-1.884-2.827-3.769-5.654-3.769-4.711c-1.884,0-3.769-1.884-5.654-1.884c-2.826,0-7.538,1.884-9.422,1.884
				c-2.827,0-3.77-1.884-6.596-1.884c-6.596,0-29.209,21.671-29.209,20.729c-2.827,0-8.48-1.884-10.365-1.884
				c-7.538,0-8.48,8.48-14.133,8.48c-2.827,0-2.827-2.827-3.769-4.711c-3.769,1.884-9.422,5.653-11.307,5.653
				c-2.827,0-2.827-1.884-3.769-1.884c0.942-0.942,5.653-1.885,5.653-4.711c0-2.827-1.884-4.711-1.884-6.596
				c0-2.827,0.942,0,1.884-0.942c-12.249-9.422-26.383-34.863-32.978-34.863c-2.827,0-0.942,2.827-3.769,2.827
				c-0.942,0-22.614-18.844-26.383-30.151c0.942,1.884,4.711,2.826,6.596,6.596c0.942-0.942,1.297,0.761,1.884,0.942l5.654-0.942
				c-9.422-13.191-17.902-25.44-25.44-38.632c10.364,11.307,17.902,24.498,29.209,30.152c1.884,0.942,6.596,0,8.48,0
				c2.827,2.827,5.653,2.827,7.538,4.71c9.422,6.596,12.25,18.845,24.499,21.672c2.827,0.942,10.364,1.884,12.249,1.884
				c4.711,0,16.019-6.596,16.961-5.654c1.884-2.826,4.711-6.596,5.653-5.653c8.48-7.538,17.902-16.018,31.093-24.499
				c15.076-11.307,13.191-13.191,13.191-22.613c0-1.884,1.884-4.711,2.827-6.596c0-3.769,0.942-7.538,0.942-11.307
				c0-1.885,0.942-3.769,0.942-6.596c0-1.885-1.884,0-1.884-2.827c0-1.884,1.884-0.942,1.884-2.826c0-2.827-3.769-2.827-3.769-5.654
				c0-1.884,2.827-0.942,2.827-3.769c0-1.884-1.885-0.942-2.827-1.884l0.942-0.942c0.943-0.942,0-3.769,0-6.595
				c0-5.654,11.307-12.25,11.307-13.191c2.827-6.596,7.538-9.422,7.538-15.076c2.827-2.827,6.596-7.538,9.422-12.25
				c0.942,0,5.653-4.711,4.711-5.653c3.769-2.827,6.596-13.191,6.596-14.133c0-1.885-1.884-9.422-3.769-13.191
				c-1.885-4.711-5.654-8.48-8.48-13.191c-0.942-0.943,0-3.769-0.942-4.711c-4.711-9.423-9.422-17.903-12.249-26.383
				c0.942-1.884,2.827-3.769,2.827-6.596c0-1.884-1.885-2.827-3.77-2.827c1.885-3.769,2.827-1.884,4.711-3.769
				c-0.942-1.885-2.827-5.654-2.827-7.538c0-2.827,1.885-6.596,1.885-8.48c0-1.884-2.827-6.595-2.827-9.422
				c-1.885-1.884-3.769-5.653-5.654-8.48c-0.942-1.884,0-4.711-0.942-6.596c0-0.942-0.943-2.827-1.885-3.769
				c-0.942-4.711-12.25-26.383-21.671-25.44c-1.884-1.885-5.654-6.596-9.422-8.48c-1.885-0.942-5.653,0-7.538-1.884
				c-1.885-0.942-1.885-2.827-4.711-2.827c-1.884,0,0.942,1.884-1.884,1.884c-1.885,0,0.942-1.884-0.942-1.884
				c-2.827,0-0.942,1.884-2.827,1.884c-0.942,0-6.596-2.827-6.596-3.769l-2.827,2.827c-1.885-0.942-3.769-5.654-5.653-1.885
				c0.942,0.942,1.884,1.885,1.884,2.827c-5.654-0.942-13.191-1.884-15.076-1.884c-0.942,0-1.884,0.942-4.711,0.942
				c-0.942,0.942,0,2.827,0,3.769c-0.942-0.942-1.884-3.769-4.711-3.769c-1.885,0-3.769,0.942-4.711,1.885
				c0-0.942,0.942-1.885,1.884-2.827c-0.942-0.942-0.942-0.942-2.826-0.942c-2.827,0-3.769,1.885-5.654,1.885
				c-2.826,0-1.884-1.885-3.769-1.885c-1.884,0-6.596,3.769-13.191,3.769c-0.942,0.942-1.885,2.826-2.827,2.826
				c0-0.942,0.942-2.826,0-3.769c-4.711,2.827-11.307,3.769-11.307,8.48c0,1.884-5.653,0-7.538,0.942
				c-10.364,4.711-23.556,19.787-29.209,31.094c-1.884,2.827-2.827,8.48-4.711,12.249c-1.884,5.653-6.596,15.076-6.596,16.96
				c0,0-14.133,16.018-14.133,10.365c0-1.885,6.595-10.365,6.595-12.249c0-2.827,0-4.711-2.826-4.711
				c-1.884,0-0.942,1.884-1.884,1.884c1.884-3.769,4.71-8.48,6.596-13.191c-1.885,0.942-3.77,2.826-4.711,3.769v-6.596
				c0.942-0.942,2.826-1.884,3.769-2.826c-0.942-0.942-3.769-0.942-4.711,0c0.942-2.827,3.769-5.654,3.769-8.48
				c0-1.884-0.942-0.942-1.884-0.942c1.884,0,3.77-1.885,4.711-4.711c0,0,0-0.942-1.885-0.942c-2.827,0-5.653,3.769-7.538,6.596
				c0.942,0.942,2.827,0.942,3.769,0.942c-2.827,1.884-5.654,5.653-7.538,8.48c0,0.942,0,1.884,0.942,2.827
				c0.942-0.943,1.884-1.885,3.769-0.943c0,0.943-1.884,0.943-3.769,2.827c0,0.942,0.942,2.826,2.827,2.826
				c-1.885,1.885-1.885,3.769-1.885,2.827c0,0,0-0.942-0.942-1.885c-9.422,8.48-6.596,23.556-9.422,33.921l0.942,8.48
				c0.942,0-1.051,1.37-0.109,0.428c-0.942,1.884,0.109-0.428-1.776,1.457c0.942,1.884,1.885,1.884,1.885,4.711
				c0,1.885-0.942,9.422-0.942,11.307c0,2.827-1.885,1.884-2.827,2.827c0,1.884-0.942,4.71-1.885,6.596
				c-0.942,0.941-0.942,2.826-3.769,2.826c-1.884,0-0.942-0.942-2.826-0.942v-10.365c0.942-8.48,3.769-22.614,3.769-25.44
				c0-1.884-1.884,0.942-1.884-1.884c0-1.885,3.769-17.903,5.653-26.383c5.653-28.267,38.632-60.303,55.592-67.841
				c0.942,0,0.942-1.885,1.884-2.827c12.25-4.711,35.806-16.018,38.632-16.018c1.885,0,0.942,1.884,2.827,1.884
				c2.827,0,4.711-2.827,8.48-3.769c3.769-1.885,13.191-2.827,15.076-2.827C267.678,0.004,268.331-0.166,271.158,1.719z"/>
			<path fill-rule="evenodd" clip-rule="evenodd" d="M399.592,107.419c-4.711-2.826-12.25-9.422-14.134-16.018
				c-0.942-3.769-1.885-9.422-1.885-11.307v-2.827C389.226,86.69,392.996,97.054,399.592,107.419z"/>
			<path fill-rule="evenodd" clip-rule="evenodd" d="M397.706,114.957c0,0.942-1.884,0-2.826,0.942
				c0,1.885,5.653,5.653,4.711,11.307c-1.885-2.827-6.596-10.365-6.596-12.25c0-2.826,1.884-1.884,3.769-1.884
				C396.764,113.072,396.764,114.015,397.706,114.957z"/>
			<path fill-rule="evenodd" clip-rule="evenodd" d="M394.88,144.166c0.942,3.769,1.884,7.538,2.826,11.307
				c-5.653-1.884-8.216-13.666-11.985-17.436c0.042,0.084,2.925-1.303,2.925-1.261C388.646,136.776,394.88,143.224,394.88,144.166z"
				/>
			<path fill-rule="evenodd" clip-rule="evenodd" d="M361.902,148.877c0,0-2.827-1.884-2.827,0c0,2.826,2.827,1.884,3.769,3.769
				c4.711,6.596,5.653,15.076,13.191,21.671c0.942,0.943,0.942,0.943,0.942,3.769c0,0.942-0.942,8.48-4.711,8.48
				c-2.827,0-0.942,0.942-2.827,0.942c-2.827,0-3.769,0.943-9.422,4.711c-0.942,0.942-1.884,0-2.827,0
				c-0.942,0.942-0.942,1.884-1.884,1.884c-1.884,1.885-6.596,3.769-8.48,3.769c-2.827,0-3.769-1.884-3.769-1.884l1.885-1.885
				c-4.711-2.827-10.365-3.769-14.133-4.711c6.595,0.942,16.96-0.942,16.018-1.885c0.942-0.942-3.769-2.827-6.596-2.827
				c-2.827,0-4.711-2.826-10.365-0.942c-0.942-0.942-1.884-1.884-2.827-1.884c0.942-0.943,0-1.885,2.827-1.885
				c1.885,0,2.827,1.885,4.711,1.885c2.826,0,10.365-2.827,15.076-4.711c-0.942-0.942-2.827-0.942-4.711-0.942
				c-2.827,0-6.596,1.884-9.423,1.884c-7.538,0-10.364-4.711-11.306-10.365c-1.885,0.943-5.654,2.827-5.654,6.596
				c-1.885-0.942-11.307-2.826-11.307,4.711c0,1.884,7.538,11.307,7.538,14.133c0,1.884-1.884,1.884-2.827,2.827
				c0,0.942,0,1.884,0,4.711c0,10.365,6.596,15.076,14.134,28.268c1.884,2.826,0.942,7.537,2.826,11.307
				c1.885,5.653,6.596,11.307,9.423,17.902c1.884,2.827,2.827,8.48,2.827,10.364c0,5.654-6.596,5.654-6.596,15.076
				c0,1.884,1.884,8.48,1.884,11.307c0,2.827-10.364,8.48-11.307,10.364c-6.596,4.711-12.249,9.423-16.96,14.134
				c-2.827,3.769-7.538,10.364-9.422,10.364c-2.827,0-2.827-1.884-3.769-1.884c-0.942,0.942-2.826,0-2.826-1.884
				c0-2.827,2.826-6.596,4.711-9.423c0.942-0.942,0-1.884,0-4.711c0-1.884,1.884-1.884,2.827-2.826
				c-1.884-2.827-2.827-2.827-3.769-2.827l1.885-1.885c-0.942-0.942-2.827-1.884-2.827-4.711c0-1.884,0.942-3.769,0.942-5.654
				c0-2.826,12.249-6.595,12.249-11.307c0-1.884-1.884-5.654-4.711-5.654c-1.885,0,0.942,1.885-1.885,1.885
				c-1.884,0-1.884-1.885-2.827-2.827c-9.422,0.942-13.191-0.942-19.787-0.942h-32.979c-1.884,1.884-4.711,2.827-6.596,3.77
				c-0.942-1.885,0-3.77,0-6.596c2.827,0,7.538,0.942,9.423,0.942c2.826,0,18.844-3.769,20.729-3.769
				c2.827,0,11.307,1.885,13.191,1.885c4.711,0,14.133-4.711,16.96-6.596c0-0.942-0.942-2.827-1.884-2.827l-0.942,0.942v-4.711
				c0.942,0,1.884,0,1.884-2.827c0-4.71-14.133-10.364-16.96-11.306c-2.826-0.943-4.711-4.711-7.538-5.654
				c-4.711-1.885-14.134,1.885-17.902-2.827c2.827,0,7.538-1.884,10.364-1.884c1.884,0,10.365,5.653,13.191,5.653
				c6.596,0,19.787-15.076,19.787-22.614c0-1.885-4.711-16.96-4.711-19.787c0-1.885,1.885-1.885,1.885-3.77
				c0-2.826-3.769-1.884-3.769-3.769c0-2.827,1.884-6.596,1.884-8.48c0-9.422-5.653-16.96-5.653-18.844
				c0-2.827,0.942-3.769,0.942-6.596c1.885,0,2.827,0.942,5.653,0.942c1.885,0,7.538-5.653,10.365-5.653
				c1.884,0,0.942,1.884,1.884,2.827c2.827-1.885,5.653-2.827,7.538-5.654c1.885,4.711,13.191,0,16.018,5.654
				c2.827-2.827,8.48-1.885,13.191-2.827l-1.885-1.884c0.942-0.943,4.711-0.943,2.827-2.827c0.942,0,1.884,0.943,3.769,0.943
				c2.827,0,1.885-1.885,4.711-1.885C356.248,145.108,359.075,146.05,361.902,148.877z"/>
			<path fill-rule="evenodd" clip-rule="evenodd" d="M156.494,154.53c0,0,0,0.943,0.942,1.885c2.827-2.826,6.596-5.653,9.423-8.48
				c0,1.885-3.77,2.827-4.711,5.654c-1.884,2.826,0,8.48-1.884,13.191c-1.885,0-3.77-1.885-5.654-2.827
				c0,2.827-1.884,0.942-1.884-0.942c0-5.653,2.827-11.307,6.595-16.96C158.379,148.877,158.379,151.704,156.494,154.53z"/>
			<path fill-rule="evenodd" clip-rule="evenodd" d="M253.545,154.53c0.942,0.943,2.827,0,4.711,0
				c0.942,1.885,3.77,4.711,4.711,5.653c-5.653,0-11.307-0.942-27.325,0c0-0.942,1.884-0.942,3.769-1.884
				c-0.942-0.942-0.942-2.827-3.769-2.827c-1.885,0-3.769,2.827-6.596,2.827c-1.885,0-2.827-2.827-3.769-2.827l-0.942,0.942
				c0-1.885,6.596-3.769,8.48-3.769c2.827,0,10.365-4.711,12.249-4.711C250.718,147.935,250.718,152.646,253.545,154.53z"/>
			<path fill-rule="evenodd" clip-rule="evenodd" fill="#FFFFFF" d="M347.768,163.011c-0.942,0.942-0.942,0.942-2.827,0.942
				c-2.827,0-16.019-1.884-18.845-1.884c-8.48,0-11.307,0-18.845,5.653c-0.942,0-1.884-0.942-2.826-0.942v-2.827
				c0.942-0.942,1.884-2.827,2.826-3.77c8.48-0.942,24.499-2.826,27.325-2.826C339.288,157.357,343.999,156.415,347.768,163.011z"/>
			<path fill-rule="evenodd" clip-rule="evenodd" d="M253.545,168.665c1.885,0.942,5.653-0.943,7.538,3.769
				c-0.942,0-1.884,0.942-3.769,0.942c-2.827,0-2.827-1.884-5.654-1.884c-1.884,0-1.884,0.942-2.826,0.942c0,0.942,0,0-2.827,0
				c-1.884,0-0.942,1.884-1.884,1.884c-0.942-0.942-2.827-3.769-4.711-5.653c-0.942,0-2.827,0.942-3.769,1.884
				c0.942,6.596-5.654,7.538-9.423,7.538c-6.596,0-8.48-7.538-9.422-7.538c-1.885,0-6.596,4.711-6.596,8.48
				c-2.826-1.884-5.653-0.942-8.479-0.942v-2.826c1.884-3.769,5.653-6.596,9.422-7.539c6.596-2.827,21.671-3.769,24.499-3.769
				C244.122,163.953,241.295,163.953,253.545,168.665z"/>
			<path fill-rule="evenodd" clip-rule="evenodd" d="M238.469,235.563c-0.942-1.884,0-5.654,0-7.538c0-2.827,3.77-2.827,5.654-3.769
				C242.238,228.025,241.295,231.794,238.469,235.563z"/>
			<path fill-rule="evenodd" clip-rule="evenodd" d="M190.415,310.942c0,1.885-2.827,3.769-2.827,5.653
				c-1.885,6.596-1.885,21.671-1.885,23.556c0,34.863,35.805,129.086,43.343,148.873c10.364-16.96,16.018-41.458,31.093-59.36
				c-0.942,1.884-2.826,4.71-2.826,7.538c0,3.769,6.596,11.307,7.538,12.249c7.538,7.538,15.076,17.902,15.076,27.325
				c1.884,3.769,1.884,0.942,1.884,6.596c-4.711-7.539-9.422-16.019-16.018-24.499c-3.769,3.769-29.209,24.499-29.209,35.805
				c0,1.884,3.769,10.365,5.654,16.019H129.169c-3.769-4.711-15.076-3.769-19.787-3.769c-1.884,0-18.845,0-27.325,1.884
				c-1.884,0-3.769,1.885-6.596,1.885H25.524c-0.942-0.943-1.885-0.943-2.828-1.885l-1.884,1.885H9.505V440.97
				c1.885-3.769,4.711-9.422,4.711-12.249c0-1.885-4.711-22.614-4.711-25.44c0-5.654,62.188-28.267,92.339-42.4
				c23.556-12.25,57.476-19.787,73.495-32.979c4.711-4.711,6.596-16.019,14.133-20.729
				C189.472,308.115,190.415,308.115,190.415,310.942z"/>
			<path fill-rule="evenodd" clip-rule="evenodd" d="M328.923,456.046c0,8.48-8.48,34.863-8.48,34.863
				c0,2.827,4.711,13.191,7.538,19.787h-29.209c0-2.827-0.942-5.654-0.942-8.48c0-1.884,3.769-16.96,3.769-18.844
				c0-2.827-0.942-0.943-0.942-2.827c-1.885,0,0-0.942,0-0.942c-0.942-2.826-1.885-0.942-1.885-3.769
				c0-1.884,3.769-7.538,3.769-9.422c0-2.826-3.769-10.364-3.769-13.191c0-1.884,1.885-1.884,1.885-4.711
				c0-1.885-3.769-7.539-3.769-10.365c0-5.654,2.827-5.654,4.711-10.365c0-0.942,0.942-2.826,0-4.71
				C311.963,426.837,328.923,447.566,328.923,456.046z"/>
			<path fill-rule="evenodd" clip-rule="evenodd" d="M281.811,510.696h-7.538c1.885-10.365,4.711-0.943,4.711-9.423
				c0-3.769,0.942-8.48,2.826-12.249C281.811,494.678,283.696,494.678,281.811,510.696z"/>
		</g>
	</g>
</g>
</svg>
