<svg xmlns="http://www.w3.org/2000/svg">
    <symbol id="linkedin" fill-rule="evenodd" clip-rule="evenodd" stroke-linejoin="round" stroke-miterlimit="1.414" viewBox="0 0 16 16">
        <path d="M13.632 13.635h-2.37V9.922c0-.886-.018-2.025-1.234-2.025-1.235 0-1.424.964-1.424 1.96v3.778h-2.37V6H8.51v1.04h.03c.318-.6 1.092-1.233 2.247-1.233 2.4 0 2.845 1.58 2.845 3.637v4.188zM3.558 4.955c-.762 0-1.376-.617-1.376-1.377 0-.758.614-1.375 1.376-1.375.76 0 1.376.617 1.376 1.375 0 .76-.617 1.377-1.376 1.377zm1.188 8.68H2.37V6h2.376v7.635zM14.816 0H1.18C.528 0 0 .516 0 1.153v13.694C0 15.484.528 16 1.18 16h13.635c.652 0 1.185-.516 1.185-1.153V1.153C16 .516 15.467 0 14.815 0z"/>
    </symbol>
    <symbol id="xing" fill-rule="evenodd" clip-rule="evenodd" stroke-linejoin="round" stroke-miterlimit="1.414" viewBox="0 0 16 16">
        <svg xmlns="http://www.w3.org/2000/svg" viewBox="9 9 34 34">
            <path d="M17.122 30.357h-4.326c-.26 0-.455-.118-.564-.293-.115-.185-.121-.425 0-.659l4.597-8.061c.004-.011.004-.014 0-.025l-2.925-5.031c-.123-.238-.14-.474-.026-.659.108-.179.328-.272.588-.272h4.328c.663 0 .989.426 1.203.809 0 0 2.958 5.125 2.975 5.154-.175.308-4.67 8.206-4.67 8.206C18.082 29.923 17.769 30.357 17.122 30.357zM37.765 10.944l-9.579 16.937c-.005.012-.005.02 0 .028l6.099 11.147c.12.24.125.482.01.667C34.183 39.901 33.983 40 33.72 40h-4.321c-.661 0-.994-.439-1.208-.826 0 0-6.133-11.248-6.149-11.277.306-.542 9.626-17.072 9.626-17.072C31.9 10.409 32.183 10 32.827 10H37.2c.259 0 .465.097.574.278C37.888 10.462 37.884 10.703 37.765 10.944z"/>
        </svg>
    </symbol>
    <symbol id="mastodon" fill-rule="evenodd" clip-rule="evenodd" stroke-linejoin="round" stroke-miterlimit="1.414" viewBox="0 0 16 16">
        <svg xmlns="http://www.w3.org/2000/svg" viewBox="0 0 417.8 512">
            <path d="M417.8 179.1c0-97.2-63.7-125.7-63.7-125.7-62.5-28.7-228.5-28.4-290.4 0 0 0-63.7 28.5-63.7 125.7 0 115.7-6.6 259.4 105.6 289.1 40.5 10.7 75.3 13 103.3 11.4 50.8-2.8 79.3-18.1 79.3-18.1l-1.7-36.9s-36.3 11.4-77.1 10.1c-40.4-1.4-83-4.4-89.6-54-.6-4.4-.9-9-.9-13.9 85.6 20.9 158.6 9.1 178.7 6.7 56.1-6.7 105-41.3 111.2-72.9 9.8-49.8 9-121.5 9-121.5zm-75.1 125.2h-46.6V190.1c0-49.7-64-51.6-64 6.9v62.5h-46.3V197c0-58.5-64-56.6-64-6.9v114.2H75.1c0-122.1-5.2-147.9 18.4-175 25.9-28.9 79.8-30.8 103.8 6.1l11.6 19.5 11.6-19.5c24.1-37.1 78.1-34.8 103.8-6.1 23.7 27.3 18.4 53 18.4 175z"/>
        </svg>
        <!--
        Font Awesome Free 5.4.1 by @fontawesome - https://fontawesome.com
        License - https://fontawesome.com/license/free (Icons: CC BY 4.0, Fonts: SIL OFL 1.1, Code: MIT License)
        -->
    </symbol>
    <symbol id="x" fill-rule="evenodd" clip-rule="evenodd" stroke-linejoin="round" stroke-miterlimit="1.414" viewBox="0 0 16 16">
        <path d="M 9.5237333,6.7756869 15.481067,0 h -1.4112 L 8.8949333,5.8820316 4.7648,0 H 0 L 6.2469333,8.8955204 0,16 H 1.4112 L 6.8725333,9.7870441 11.2352,16 H 16 M 1.9205333,1.0412656 h 2.168 L 14.0688,15.009892 h -2.168533"
              style="stroke-width:0.0533111"/>
    </symbol>
    <symbol id="devto" fill-rule="evenodd" clip-rule="evenodd" stroke-linejoin="round" stroke-miterlimit="1.414" viewBox="0 0 16 16">
        <path d="M4.548,6.415C4.419,6.318,4.29,6.271,4.161,6.271h-0.58v3.471h0.58c0.129,0,0.258-0.049,0.387-0.145 C4.677,9.5,4.742,9.355,4.742,9.163V6.85C4.741,6.656,4.676,6.511,4.548,6.415z M13.981,0.559H2.016 c-0.804,0-1.457,0.65-1.458,1.455v11.973c0.002,0.805,0.655,1.455,1.458,1.455h11.968c0.805,0,1.457-0.65,1.459-1.455V2.014 C15.438,1.209,14.786,0.559,13.981,0.559z M5.68,9.169c0,0.625-0.386,1.572-1.605,1.569H2.532V5.242h1.573 c1.179,0,1.573,0.945,1.574,1.57V9.169z M9.024,6.225h-1.77V7.5h1.082v0.982H7.255v1.275h1.771v0.982H6.959 c-0.371,0.009-0.679-0.283-0.688-0.654V5.931c-0.008-0.37,0.285-0.679,0.655-0.688h2.099V6.225z M12.47,10.055 c-0.438,1.021-1.226,0.817-1.576,0l-1.28-4.812h1.081l0.988,3.778l0.981-3.778h1.082L12.47,10.055z"/>
    </symbol>
    <symbol id="github" fill-rule="evenodd" clip-rule="evenodd" stroke-linejoin="round" stroke-miterlimit="1.414" viewBox="0 0 16 16">
        <path d="M8 0C3.58 0 0 3.582 0 8c0 3.535 2.292 6.533 5.47 7.59.4.075.547-.172.547-.385 0-.19-.007-.693-.01-1.36-2.226.483-2.695-1.073-2.695-1.073-.364-.924-.89-1.17-.89-1.17-.725-.496.056-.486.056-.486.803.056 1.225.824 1.225.824.714 1.223 1.873.87 2.33.665.072-.517.278-.87.507-1.07-1.777-.2-3.644-.888-3.644-3.953 0-.873.31-1.587.823-2.147-.09-.202-.36-1.015.07-2.117 0 0 .67-.215 2.2.82.64-.178 1.32-.266 2-.27.68.004 1.36.092 2 .27 1.52-1.035 2.19-.82 2.19-.82.43 1.102.16 1.915.08 2.117.51.56.82 1.274.82 2.147 0 3.073-1.87 3.75-3.65 3.947.28.24.54.73.54 1.48 0 1.07-.01 1.93-.01 2.19 0 .21.14.46.55.38C13.71 14.53 16 11.53 16 8c0-4.418-3.582-8-8-8"/>
    </symbol>
    <symbol id="farcaster" fill-rule="evenodd" clip-rule="evenodd" stroke-linejoin="round" stroke-miterlimit="1.414" viewBox="0 0 16 16">
        <svg xmlns="http://www.w3.org/2000/svg" viewBox="0 0 1000 1000">
            <path d="M257.778 155.556H742.222V844.445H671.111V528.889H670.414C662.554 441.677 589.258 373.333 500 373.333C410.742 373.333 337.446 441.677 329.586 528.889H328.889V844.445H257.778V155.556Z"/>
            <path d="M128.889 253.333L157.778 351.111H182.222V746.667C169.949 746.667 160 756.616 160 768.889V795.556H155.556C143.283 795.556 133.333 805.505 133.333 817.778V844.445H382.222V817.778C382.222 805.505 372.273 795.556 360 795.556H355.556V768.889C355.556 756.616 345.606 746.667 333.333 746.667H306.667V253.333H128.889Z"/>
            <path d="M675.556 746.667C663.283 746.667 653.333 756.616 653.333 768.889V795.556H648.889C636.616 795.556 626.667 805.505 626.667 817.778V844.445H875.556V817.778C875.556 805.505 865.606 795.556 853.333 795.556H848.889V768.889C848.889 756.616 838.94 746.667 826.667 746.667V351.111H851.111L880 253.333H702.222V746.667H675.556Z"/>
        </svg>
    </symbol>
    <symbol id="rodeo" fill-rule="evenodd" clip-rule="evenodd" stroke-linejoin="round" stroke-miterlimit="1.414" viewBox="0 0 16 16">
        <svg xmlns="http://www.w3.org/2000/svg" viewBox="0 0 16 16">
            <path d="m15.766 7.434-7.2-7.2A.801.801 0 0 0 7.198.8v5.268L3.475 2.343a.8.8 0 1 0-1.132 1.131L6.068 7.2H.8a.8.8 0 0 0 0 1.6h5.268l-3.725 3.725a.8.8 0 1 0 1.132 1.13l3.724-3.724V15.2a.8.8 0 0 0 1.6 0V9.93l3.726 3.727a.798.798 0 0 0 1.132 0 .8.8 0 0 0 0-1.132L9.93 8.8H15.2a.801.801 0 0 0 .565-1.366h.001ZM8.8 7.2V2.73L13.268 7.2H8.8Z"/>
        </svg>
    </symbol>
    <symbol id="rss" fill-rule="evenodd" clip-rule="evenodd" stroke-linejoin="round" stroke-miterlimit="1.414" viewBox="0 0 16 16">
        <path d="M12.8 16C12.8 8.978 7.022 3.2 0 3.2V0c8.777 0 16 7.223 16 16h-3.2zM2.194 11.61c1.21 0 2.195.985 2.195 2.196 0 1.21-.99 2.194-2.2 2.194C.98 16 0 15.017 0 13.806c0-1.21.983-2.195 2.194-2.195zM10.606 16h-3.11c0-4.113-3.383-7.497-7.496-7.497v-3.11c5.818 0 10.606 4.79 10.606 10.607z"/>
    </symbol>
</svg>
